<svg xmlns="http://www.w3.org/2000/svg" xmlns:xlink="http://www.w3.org/1999/xlink" width="5000" zoomAndPan="magnify" viewBox="0 0 3750 3749.999967" height="5000" preserveAspectRatio="xMidYMid meet" version="1.0"><defs><clipPath id="ecf7c3e869"><path d="M 1644.816406 547.5 L 2099.582031 547.5 L 2099.582031 1002.265625 L 1644.816406 1002.265625 Z M 1644.816406 547.5 " clip-rule="nonzero"/></clipPath><clipPath id="6278edaf08"><path d="M 1872.199219 547.5 C 1746.621094 547.5 1644.816406 649.300781 1644.816406 774.882812 C 1644.816406 900.460938 1746.621094 1002.265625 1872.199219 1002.265625 C 1997.777344 1002.265625 2099.582031 900.460938 2099.582031 774.882812 C 2099.582031 649.300781 1997.777344 547.5 1872.199219 547.5 Z M 1872.199219 547.5 " clip-rule="nonzero"/></clipPath><clipPath id="4c1040ff3e"><path d="M 1644.816406 1498.269531 L 2099.582031 1498.269531 L 2099.582031 1953.03125 L 1644.816406 1953.03125 Z M 1644.816406 1498.269531 " clip-rule="nonzero"/></clipPath><clipPath id="f676e79923"><path d="M 1872.199219 1498.269531 C 1746.621094 1498.269531 1644.816406 1600.070312 1644.816406 1725.652344 C 1644.816406 1851.230469 1746.621094 1953.03125 1872.199219 1953.03125 C 1997.777344 1953.03125 2099.582031 1851.230469 2099.582031 1725.652344 C 2099.582031 1600.070312 1997.777344 1498.269531 1872.199219 1498.269531 Z M 1872.199219 1498.269531 " clip-rule="nonzero"/></clipPath><clipPath id="b4f40d8b9c"><path d="M 1644.816406 2450.4375 L 2099.582031 2450.4375 L 2099.582031 2905.203125 L 1644.816406 2905.203125 Z M 1644.816406 2450.4375 " clip-rule="nonzero"/></clipPath><clipPath id="ad602cb7a8"><path d="M 1872.199219 2450.4375 C 1746.621094 2450.4375 1644.816406 2552.238281 1644.816406 2677.820312 C 1644.816406 2803.398438 1746.621094 2905.203125 1872.199219 2905.203125 C 1997.777344 2905.203125 2099.582031 2803.398438 2099.582031 2677.820312 C 2099.582031 2552.238281 1997.777344 2450.4375 1872.199219 2450.4375 Z M 1872.199219 2450.4375 " clip-rule="nonzero"/></clipPath><clipPath id="d544f7fe40"><path d="M 0 1499.667969 L 454.765625 1499.667969 L 454.765625 1954.433594 L 0 1954.433594 Z M 0 1499.667969 " clip-rule="nonzero"/></clipPath><clipPath id="bf327a8ae8"><path d="M 227.382812 1499.667969 C 101.800781 1499.667969 0 1601.472656 0 1727.050781 C 0 1852.632812 101.800781 1954.433594 227.382812 1954.433594 C 352.960938 1954.433594 454.765625 1852.632812 454.765625 1727.050781 C 454.765625 1601.472656 352.960938 1499.667969 227.382812 1499.667969 Z M 227.382812 1499.667969 " clip-rule="nonzero"/></clipPath><clipPath id="e5b1f922da"><path d="M 811.160156 1973.652344 L 1265.925781 1973.652344 L 1265.925781 2428.417969 L 811.160156 2428.417969 Z M 811.160156 1973.652344 " clip-rule="nonzero"/></clipPath><clipPath id="7e68656442"><path d="M 1038.542969 1973.652344 C 912.960938 1973.652344 811.160156 2075.453125 811.160156 2201.035156 C 811.160156 2326.613281 912.960938 2428.417969 1038.542969 2428.417969 C 1164.121094 2428.417969 1265.925781 2326.613281 1265.925781 2201.035156 C 1265.925781 2075.453125 1164.121094 1973.652344 1038.542969 1973.652344 Z M 1038.542969 1973.652344 " clip-rule="nonzero"/></clipPath><clipPath id="8a50463dd4"><path d="M 811.160156 1022.882812 L 1265.925781 1022.882812 L 1265.925781 1477.648438 L 811.160156 1477.648438 Z M 811.160156 1022.882812 " clip-rule="nonzero"/></clipPath><clipPath id="a71c9c82e1"><path d="M 1038.542969 1022.882812 C 912.960938 1022.882812 811.160156 1124.6875 811.160156 1250.265625 C 811.160156 1375.847656 912.960938 1477.648438 1038.542969 1477.648438 C 1164.121094 1477.648438 1265.925781 1375.847656 1265.925781 1250.265625 C 1265.925781 1124.6875 1164.121094 1022.882812 1038.542969 1022.882812 Z M 1038.542969 1022.882812 " clip-rule="nonzero"/></clipPath><clipPath id="142d7e2e59"><path d="M 2484.074219 1972.253906 L 2938.839844 1972.253906 L 2938.839844 2427.015625 L 2484.074219 2427.015625 Z M 2484.074219 1972.253906 " clip-rule="nonzero"/></clipPath><clipPath id="6f04408a7a"><path d="M 2711.457031 1972.253906 C 2585.878906 1972.253906 2484.074219 2074.054688 2484.074219 2199.632812 C 2484.074219 2325.214844 2585.878906 2427.015625 2711.457031 2427.015625 C 2837.039062 2427.015625 2938.839844 2325.214844 2938.839844 2199.632812 C 2938.839844 2074.054688 2837.039062 1972.253906 2711.457031 1972.253906 Z M 2711.457031 1972.253906 " clip-rule="nonzero"/></clipPath><clipPath id="1b5c0981fe"><path d="M 2484.074219 1021.484375 L 2938.839844 1021.484375 L 2938.839844 1476.25 L 2484.074219 1476.25 Z M 2484.074219 1021.484375 " clip-rule="nonzero"/></clipPath><clipPath id="04d020af87"><path d="M 2711.457031 1021.484375 C 2585.878906 1021.484375 2484.074219 1123.285156 2484.074219 1248.867188 C 2484.074219 1374.445312 2585.878906 1476.25 2711.457031 1476.25 C 2837.039062 1476.25 2938.839844 1374.445312 2938.839844 1248.867188 C 2938.839844 1123.285156 2837.039062 1021.484375 2711.457031 1021.484375 Z M 2711.457031 1021.484375 " clip-rule="nonzero"/></clipPath><clipPath id="a29e41deb1"><path d="M 3295.234375 1501.070312 L 3750 1501.070312 L 3750 1955.835938 L 3295.234375 1955.835938 Z M 3295.234375 1501.070312 " clip-rule="nonzero"/></clipPath><clipPath id="8f3780a6fe"><path d="M 3522.617188 1501.070312 C 3397.039062 1501.070312 3295.234375 1602.871094 3295.234375 1728.453125 C 3295.234375 1854.03125 3397.039062 1955.835938 3522.617188 1955.835938 C 3648.195312 1955.835938 3750 1854.03125 3750 1728.453125 C 3750 1602.871094 3648.195312 1501.070312 3522.617188 1501.070312 Z M 3522.617188 1501.070312 " clip-rule="nonzero"/></clipPath></defs><g clip-path="url(#ecf7c3e869)"><g clip-path="url(#6278edaf08)"><path fill="#ffffff" d="M 1644.816406 547.5 L 2099.582031 547.5 L 2099.582031 1002.265625 L 1644.816406 1002.265625 Z M 1644.816406 547.5 " fill-opacity="1" fill-rule="nonzero"/></g></g><g clip-path="url(#4c1040ff3e)"><g clip-path="url(#f676e79923)"><path fill="#ffffff" d="M 1644.816406 1498.269531 L 2099.582031 1498.269531 L 2099.582031 1953.03125 L 1644.816406 1953.03125 Z M 1644.816406 1498.269531 " fill-opacity="1" fill-rule="nonzero"/></g></g><g clip-path="url(#b4f40d8b9c)"><g clip-path="url(#ad602cb7a8)"><path fill="#ffffff" d="M 1644.816406 2450.4375 L 2099.582031 2450.4375 L 2099.582031 2905.203125 L 1644.816406 2905.203125 Z M 1644.816406 2450.4375 " fill-opacity="1" fill-rule="nonzero"/></g></g><g clip-path="url(#d544f7fe40)"><g clip-path="url(#bf327a8ae8)"><path fill="#ffffff" d="M 0 1499.667969 L 454.765625 1499.667969 L 454.765625 1954.433594 L 0 1954.433594 Z M 0 1499.667969 " fill-opacity="1" fill-rule="nonzero"/></g></g><g clip-path="url(#e5b1f922da)"><g clip-path="url(#7e68656442)"><path fill="#ffffff" d="M 811.160156 1973.652344 L 1265.925781 1973.652344 L 1265.925781 2428.417969 L 811.160156 2428.417969 Z M 811.160156 1973.652344 " fill-opacity="1" fill-rule="nonzero"/></g></g><g clip-path="url(#8a50463dd4)"><g clip-path="url(#a71c9c82e1)"><path fill="#ffffff" d="M 811.160156 1022.882812 L 1265.925781 1022.882812 L 1265.925781 1477.648438 L 811.160156 1477.648438 Z M 811.160156 1022.882812 " fill-opacity="1" fill-rule="nonzero"/></g></g><g clip-path="url(#142d7e2e59)"><g clip-path="url(#6f04408a7a)"><path fill="#ffffff" d="M 2484.074219 1972.253906 L 2938.839844 1972.253906 L 2938.839844 2427.015625 L 2484.074219 2427.015625 Z M 2484.074219 1972.253906 " fill-opacity="1" fill-rule="nonzero"/></g></g><g clip-path="url(#1b5c0981fe)"><g clip-path="url(#04d020af87)"><path fill="#ffffff" d="M 2484.074219 1021.484375 L 2938.839844 1021.484375 L 2938.839844 1476.25 L 2484.074219 1476.25 Z M 2484.074219 1021.484375 " fill-opacity="1" fill-rule="nonzero"/></g></g><g clip-path="url(#a29e41deb1)"><g clip-path="url(#8f3780a6fe)"><path fill="#ffffff" d="M 3295.234375 1501.070312 L 3750 1501.070312 L 3750 1955.835938 L 3295.234375 1955.835938 Z M 3295.234375 1501.070312 " fill-opacity="1" fill-rule="nonzero"/></g></g></svg>